<?xml version="1.0" encoding="UTF-8" standalone="no"?>
<svg
   xmlns:dc="http://purl.org/dc/elements/1.1/"
   xmlns:cc="http://creativecommons.org/ns#"
   xmlns:rdf="http://www.w3.org/1999/02/22-rdf-syntax-ns#"
   xmlns:svg="http://www.w3.org/2000/svg"
   xmlns="http://www.w3.org/2000/svg"
   xmlns:sodipodi="http://sodipodi.sourceforge.net/DTD/sodipodi-0.dtd"
   xmlns:inkscape="http://www.inkscape.org/namespaces/inkscape"
   inkscape:export-ydpi="64.370003"
   inkscape:export-xdpi="64.370003"
   inkscape:export-filename="C:\Users\lizai\Desktop\MASTER\make-artikel\blumen_mirror\BilderArtikel\text170.png"
   width="880.75024mm"
   height="305.09286mm"
   viewBox="0 0 880.75024 305.09286"
   version="1.1"
   id="svg14"
   inkscape:version="1.0 (4035a4fb49, 2020-05-01)"
   sodipodi:docname="LasercutDatei.svg">
  <defs
     id="defs8">
    <rect
       x="67.730705"
       y="120.10911"
       width="143.85944"
       height="61.938874"
       id="rect36" />
    <rect
       id="rect58"
       height="22.203529"
       width="80.644119"
       y="120.10911"
       x="67.730705" />
    <rect
       x="67.730705"
       y="120.10911"
       width="80.644119"
       height="22.203529"
       id="rect84" />
    <rect
       id="rect90"
       height="22.203529"
       width="80.644119"
       y="120.10911"
       x="67.730705" />
    <rect
       id="rect164"
       height="22.203529"
       width="80.644119"
       y="120.10911"
       x="67.730705" />
    <rect
       id="rect172"
       height="22.203529"
       width="80.644119"
       y="120.10911"
       x="67.730705" />
  </defs>
  <sodipodi:namedview
     id="base"
     pagecolor="#ffffff"
     bordercolor="#666666"
     borderopacity="1.0"
     inkscape:pageopacity="0.0"
     inkscape:pageshadow="2"
     inkscape:zoom="0.30966642"
     inkscape:cx="1766.3444"
     inkscape:cy="688.02498"
     inkscape:document-units="mm"
     inkscape:current-layer="layer1"
     inkscape:document-rotation="0"
     showgrid="false"
     inkscape:window-width="1920"
     inkscape:window-height="1010"
     inkscape:window-x="-7"
     inkscape:window-y="-7"
     inkscape:window-maximized="1"
     fit-margin-top="0"
     fit-margin-left="0"
     fit-margin-right="0"
     fit-margin-bottom="0" />
  <metadata
     id="metadata11">
    <rdf:RDF>
      <cc:Work
         rdf:about="">
        <dc:format>image/svg+xml</dc:format>
        <dc:type
           rdf:resource="http://purl.org/dc/dcmitype/StillImage" />
        <dc:title />
      </cc:Work>
    </rdf:RDF>
  </metadata>
  <g
     inkscape:label="Ebene 1"
     inkscape:groupmode="layer"
     id="layer1"
     transform="translate(-28.532215,-36.794559)">
    <g
       id="g4561"
       style="fill:none;stroke:#ff0000;stroke-width:0.00087943;stroke-miterlimit:4;stroke-dasharray:none"
       transform="matrix(1.6045765,0,0,1.6045765,92.153897,33.419656)">
      <path
         d="M 88,41.101 C 88,30.264 79.216,21.479 68.379,21.479 c -1.338,0 -2.644,0.136 -3.906,0.391 C 63.323,12.13 55.051,4.571 45.001,4.571 34.951,4.571 26.679,12.13 25.528,21.87 24.266,21.615 22.96,21.479 21.622,21.479 10.785,21.479 2,30.264 2,41.101 2,48.965 6.636,55.729 13.315,58.859 11.841,61.613 11,64.758 11,68.101 c 0,10.838 8.785,19.622 19.622,19.622 5.688,0 10.795,-2.435 14.378,-6.301 3.584,3.866 8.691,6.301 14.378,6.301 C 70.216,87.723 79,78.938 79,68.101 79,64.758 78.159,61.614 76.686,58.859 83.364,55.729 88,48.965 88,41.101 Z"
         id="path4559"
         style="fill:none;stroke:#ff0000;stroke-width:0.00087943;stroke-miterlimit:4;stroke-dasharray:none"
         inkscape:connector-curvature="0"
         sodipodi:nodetypes="sscscsscsscsscs" />
    </g>
    <g
       style="stroke-width:0.00533333;stroke-miterlimit:4;stroke-dasharray:none;stroke:#ff0000"
       transform="matrix(0.26458333,0,0,0.26458333,697.19126,42.270539)"
       id="g64">
      <g
         id="g4503"
         style="fill:none;stroke:#ff0000;stroke-width:0.00080907;stroke-miterlimit:4;stroke-dasharray:none"
         transform="matrix(6.5918926,0,0,6.5918926,-1566.4085,-32.814951)">
        <path
           d="M 88,41.101 C 88,30.264 79.216,21.479 68.379,21.479 c -1.338,0 -2.644,0.136 -3.906,0.391 C 63.323,12.13 55.051,4.571 45.001,4.571 34.951,4.571 26.679,12.13 25.528,21.87 24.266,21.615 22.96,21.479 21.622,21.479 10.785,21.479 2,30.264 2,41.101 2,48.965 6.636,55.729 13.315,58.859 11.841,61.613 11,64.758 11,68.101 c 0,10.838 8.785,19.622 19.622,19.622 5.688,0 10.795,-2.435 14.378,-6.301 3.584,3.866 8.691,6.301 14.378,6.301 C 70.216,87.723 79,78.938 79,68.101 79,64.758 78.159,61.614 76.686,58.859 83.364,55.729 88,48.965 88,41.101 Z"
           id="path4501"
           style="fill:none;stroke:#ff0000;stroke-width:0.00080907;stroke-miterlimit:4;stroke-dasharray:none"
           inkscape:connector-curvature="0"
           sodipodi:nodetypes="sscscsscsscsscs" />
      </g>
      <g
         transform="matrix(6.0645412,0,0,6.0645412,-1542.6777,-8.4792655)"
         style="fill:none;stroke:#ff0000;stroke-width:0.00087943;stroke-miterlimit:4;stroke-dasharray:none"
         id="g4507">
        <path
           sodipodi:nodetypes="sscscsscsscsscs"
           inkscape:connector-curvature="0"
           style="fill:none;stroke:#ff0000;stroke-width:0.00087943;stroke-miterlimit:4;stroke-dasharray:none"
           id="path4505"
           d="M 88,41.101 C 88,30.264 79.216,21.479 68.379,21.479 c -1.338,0 -2.644,0.136 -3.906,0.391 C 63.323,12.13 55.051,4.571 45.001,4.571 34.951,4.571 26.679,12.13 25.528,21.87 24.266,21.615 22.96,21.479 21.622,21.479 10.785,21.479 2,30.264 2,41.101 2,48.965 6.636,55.729 13.315,58.859 11.841,61.613 11,64.758 11,68.101 c 0,10.838 8.785,19.622 19.622,19.622 5.688,0 10.795,-2.435 14.378,-6.301 3.584,3.866 8.691,6.301 14.378,6.301 C 70.216,87.723 79,78.938 79,68.101 79,64.758 78.159,61.614 76.686,58.859 83.364,55.729 88,48.965 88,41.101 Z" />
      </g>
    </g>
    <g
       style="stroke:#ff0000;stroke-width:0.00533333;stroke-miterlimit:4;stroke-dasharray:none"
       transform="matrix(0.26458333,0,0,0.26458333,83.328836,186.55353)"
       id="g4535">
      <g
         id="g4519"
         style="fill:none;stroke:#ff0000;stroke-width:0.00080907;stroke-miterlimit:4;stroke-dasharray:none"
         transform="matrix(6.5918926,0,0,6.5918926,755.35859,-27.421763)">
        <path
           sodipodi:nodetypes="csscscsscsscssccsscsscsscscsscc"
           inkscape:connector-curvature="0"
           id="path4517"
           transform="matrix(0.1517015,0,0,0.1517015,-114.58903,4.1599226)"
           d="m 831.60547,354.43555 c -37.7438,-22.57384 -63.0625,-63.74243 -63.0625,-110.92383 0,-71.43634 57.90936,-129.3457 129.3457,-129.3457 8.81995,0 17.42908,0.89523 25.74805,2.57617 C 931.22399,52.537154 985.75148,2.7089844 1052,2.7089844 c 66.2485,0 120.7767,49.8281696 128.3574,114.0332056 8.319,-1.68094 16.9281,-2.57617 25.7481,-2.57617 71.4363,0 129.3398,57.90936 129.3398,129.3457 0,51.83864 -30.5594,96.42597 -74.5801,117.05859 9.7099,18.16067 15.252,38.88518 15.252,60.92188 0,71.43634 -57.9028,129.3457 -129.3457,129.3457 -37.4881,0 -71.152,-16.0509 -94.7774,-41.53516 -23.6187,25.48426 -57.28457,41.53516 -94.77926,41.53516 -71.43634,0 -129.3457,-57.90277 -129.3457,-129.3457 0,-15.65832 2.81186,-30.65122 7.91797,-44.53516 l 16.41798,-5.53905 c -4.13873,12.07418 -6.40625,25.01813 -6.40625,38.49805 0,65.7275 53.27661,118.99805 118.99805,118.99805 34.49511,0 65.46801,-14.76737 87.19721,-38.21289 21.7354,23.44552 52.7063,38.21289 87.1954,38.21289 65.7275,0 118.998,-53.27661 118.998,-118.99805 0,-20.27377 -5.1001,-39.34102 -14.0332,-56.04883 40.499,-18.98202 68.6152,-60.00376 68.6152,-107.69531 0,-65.72144 -53.2707,-118.99806 -118.9922,-118.99806 -8.1143,0 -16.036,0.82463 -23.6894,2.37109 C 1163.1137,70.476293 1112.9486,24.634767 1052,24.634767 c -60.94863,0 -111.11541,45.841526 -118.09569,104.910153 -7.65345,-1.54646 -15.57315,-2.37109 -23.6875,-2.37109 -65.72145,0 -118.99806,53.27662 -118.99806,118.99806 0,43.52581 23.42447,81.48608 58.30665,102.21679 z"
           style="fill:none;stroke:#ff0000;stroke-width:0.00533333;stroke-miterlimit:4;stroke-dasharray:none" />
      </g>
      <g
         transform="matrix(6.0645412,0,0,6.0645412,779.0894,-3.0860782)"
         style="fill:none;stroke:#ff0000;stroke-width:0.00087943;stroke-miterlimit:4;stroke-dasharray:none"
         id="g4523" />
    </g>
    <g
       style="stroke:#ff0000;stroke-width:0.00533333;stroke-miterlimit:4;stroke-dasharray:none"
       id="g4557"
       transform="matrix(0.26458333,0,0,0.26458333,237.65701,186.55353)">
      <g
         id="g4553"
         style="fill:none;stroke:#ff0000;stroke-width:0.00080907;stroke-miterlimit:4;stroke-dasharray:none"
         transform="matrix(6.5918926,0,0,6.5918926,755.35859,-27.421763)">
        <path
           sodipodi:nodetypes="csscscsscsscssccsscsscsscscsscc"
           inkscape:connector-curvature="0"
           id="path4551"
           transform="matrix(0.1517015,0,0,0.1517015,-114.58903,4.1599226)"
           d="m 831.60547,354.43555 c -37.7438,-22.57384 -63.0625,-63.74243 -63.0625,-110.92383 0,-71.43634 57.90936,-129.3457 129.3457,-129.3457 8.81995,0 17.42908,0.89523 25.74805,2.57617 C 931.22399,52.537154 985.75148,2.7089844 1052,2.7089844 c 66.2485,0 120.7767,49.8281696 128.3574,114.0332056 8.319,-1.68094 16.9281,-2.57617 25.7481,-2.57617 71.4363,0 129.3398,57.90936 129.3398,129.3457 0,51.83864 -30.5594,96.42597 -74.5801,117.05859 9.7099,18.16067 15.252,38.88518 15.252,60.92188 0,71.43634 -57.9028,129.3457 -129.3457,129.3457 -37.4881,0 -71.152,-16.0509 -94.7774,-41.53516 -23.6187,25.48426 -57.28457,41.53516 -94.77926,41.53516 -71.43634,0 -129.3457,-57.90277 -129.3457,-129.3457 0,-15.65832 2.81186,-30.65122 7.91797,-44.53516 l 16.41798,-5.53905 c -4.13873,12.07418 -6.40625,25.01813 -6.40625,38.49805 0,65.7275 53.27661,118.99805 118.99805,118.99805 34.49511,0 65.46801,-14.76737 87.19721,-38.21289 21.7354,23.44552 52.7063,38.21289 87.1954,38.21289 65.7275,0 118.998,-53.27661 118.998,-118.99805 0,-20.27377 -5.1001,-39.34102 -14.0332,-56.04883 40.499,-18.98202 68.6152,-60.00376 68.6152,-107.69531 0,-65.72144 -53.2707,-118.99806 -118.9922,-118.99806 -8.1143,0 -16.036,0.82463 -23.6894,2.37109 C 1163.1137,70.476293 1112.9486,24.634767 1052,24.634767 c -60.94863,0 -111.11541,45.841526 -118.09569,104.910153 -7.65345,-1.54646 -15.57315,-2.37109 -23.6875,-2.37109 -65.72145,0 -118.99806,53.27662 -118.99806,118.99806 0,43.52581 23.42447,81.48608 58.30665,102.21679 z"
           style="fill:none;stroke:#ff0000;stroke-width:0.00533333;stroke-miterlimit:4;stroke-dasharray:none" />
      </g>
      <g
         transform="matrix(6.0645412,0,0,6.0645412,779.0894,-3.0860782)"
         style="fill:none;stroke:#ff0000;stroke-width:0.00087943;stroke-miterlimit:4;stroke-dasharray:none"
         id="g4555" />
    </g>
    <g
       style="stroke:#ff0000;stroke-width:0.00533333;stroke-miterlimit:4;stroke-dasharray:none"
       transform="matrix(0.26458333,0,0,0.26458333,975.15047,127.73741)"
       id="g46">
      <g
         transform="matrix(6.5918926,0,0,6.5918926,-924.61926,-22.028576)"
         style="fill:none;stroke:#ff0000;stroke-width:0.00080907;stroke-miterlimit:4;stroke-dasharray:none"
         id="g4495">
        <path
           sodipodi:nodetypes="sscscsscsscsscs"
           inkscape:connector-curvature="0"
           style="fill:none;stroke:#ff0000;stroke-width:0.00080907;stroke-miterlimit:4;stroke-dasharray:none"
           id="path4493"
           d="M 88,41.101 C 88,30.264 79.216,21.479 68.379,21.479 c -1.338,0 -2.644,0.136 -3.906,0.391 C 63.323,12.13 55.051,4.571 45.001,4.571 34.951,4.571 26.679,12.13 25.528,21.87 24.266,21.615 22.96,21.479 21.622,21.479 10.785,21.479 2,30.264 2,41.101 2,48.965 6.636,55.729 13.315,58.859 11.841,61.613 11,64.758 11,68.101 c 0,10.838 8.785,19.622 19.622,19.622 5.688,0 10.795,-2.435 14.378,-6.301 3.584,3.866 8.691,6.301 14.378,6.301 C 70.216,87.723 79,78.938 79,68.101 79,64.758 78.159,61.614 76.686,58.859 83.364,55.729 88,48.965 88,41.101 Z" />
      </g>
      <g
         id="g4499"
         style="fill:none;stroke:#ff0000;stroke-width:0.00087943;stroke-miterlimit:4;stroke-dasharray:none"
         transform="matrix(6.0645412,0,0,6.0645412,-900.88845,2.3071091)">
        <path
           d="M 88,41.101 C 88,30.264 79.216,21.479 68.379,21.479 c -1.338,0 -2.644,0.136 -3.906,0.391 C 63.323,12.13 55.051,4.571 45.001,4.571 34.951,4.571 26.679,12.13 25.528,21.87 24.266,21.615 22.96,21.479 21.622,21.479 10.785,21.479 2,30.264 2,41.101 2,48.965 6.636,55.729 13.315,58.859 11.841,61.613 11,64.758 11,68.101 c 0,10.838 8.785,19.622 19.622,19.622 5.688,0 10.795,-2.435 14.378,-6.301 3.584,3.866 8.691,6.301 14.378,6.301 C 70.216,87.723 79,78.938 79,68.101 79,64.758 78.159,61.614 76.686,58.859 83.364,55.729 88,48.965 88,41.101 Z"
           id="path4497"
           style="fill:none;stroke:#ff0000;stroke-width:0.00087943;stroke-miterlimit:4;stroke-dasharray:none"
           inkscape:connector-curvature="0"
           sodipodi:nodetypes="sscscsscsscsscs" />
      </g>
    </g>
    <g
       style="stroke:#ff0000;stroke-width:0.00533333;stroke-miterlimit:4;stroke-dasharray:none"
       transform="matrix(0.26458333,0,0,0.26458333,850.87391,201.56481)"
       id="g58">
      <g
         transform="matrix(6.5918926,0,0,6.5918926,-1566.4085,-631.45874)"
         style="fill:none;stroke:#ff0000;stroke-width:0.00080907;stroke-miterlimit:4;stroke-dasharray:none"
         id="g4511">
        <path
           sodipodi:nodetypes="sscscsscsscsscs"
           inkscape:connector-curvature="0"
           style="fill:none;stroke:#ff0000;stroke-width:0.00080907;stroke-miterlimit:4;stroke-dasharray:none"
           id="path4509"
           d="M 88,41.101 C 88,30.264 79.216,21.479 68.379,21.479 c -1.338,0 -2.644,0.136 -3.906,0.391 C 63.323,12.13 55.051,4.571 45.001,4.571 34.951,4.571 26.679,12.13 25.528,21.87 24.266,21.615 22.96,21.479 21.622,21.479 10.785,21.479 2,30.264 2,41.101 2,48.965 6.636,55.729 13.315,58.859 11.841,61.613 11,64.758 11,68.101 c 0,10.838 8.785,19.622 19.622,19.622 5.688,0 10.795,-2.435 14.378,-6.301 3.584,3.866 8.691,6.301 14.378,6.301 C 70.216,87.723 79,78.938 79,68.101 79,64.758 78.159,61.614 76.686,58.859 83.364,55.729 88,48.965 88,41.101 Z" />
      </g>
      <g
         id="g4515"
         style="fill:none;stroke:#ff0000;stroke-width:0.00087943;stroke-miterlimit:4;stroke-dasharray:none"
         transform="matrix(6.0645412,0,0,6.0645412,-1542.6777,-607.12306)">
        <path
           d="M 88,41.101 C 88,30.264 79.216,21.479 68.379,21.479 c -1.338,0 -2.644,0.136 -3.906,0.391 C 63.323,12.13 55.051,4.571 45.001,4.571 34.951,4.571 26.679,12.13 25.528,21.87 24.266,21.615 22.96,21.479 21.622,21.479 10.785,21.479 2,30.264 2,41.101 2,48.965 6.636,55.729 13.315,58.859 11.841,61.613 11,64.758 11,68.101 c 0,10.838 8.785,19.622 19.622,19.622 5.688,0 10.795,-2.435 14.378,-6.301 3.584,3.866 8.691,6.301 14.378,6.301 C 70.216,87.723 79,78.938 79,68.101 79,64.758 78.159,61.614 76.686,58.859 83.364,55.729 88,48.965 88,41.101 Z"
           id="path4513"
           style="fill:none;stroke:#ff0000;stroke-width:0.00087943;stroke-miterlimit:4;stroke-dasharray:none"
           inkscape:connector-curvature="0"
           sodipodi:nodetypes="sscscsscsscsscs" />
      </g>
    </g>
    <g
       style="stroke:#ff0000;stroke-width:0.00533333;stroke-miterlimit:4;stroke-dasharray:none"
       transform="matrix(0.26458333,0,0,0.26458333,392.88822,186.55353)"
       id="g4549">
      <g
         transform="matrix(6.5918926,0,0,6.5918926,755.35859,-27.421763)"
         style="fill:none;stroke:#ff0000;stroke-width:0.00080907;stroke-miterlimit:4;stroke-dasharray:none"
         id="g4545">
        <path
           style="fill:none;stroke:#ff0000;stroke-width:0.00533333;stroke-miterlimit:4;stroke-dasharray:none"
           d="m 831.60547,354.43555 c -37.7438,-22.57384 -63.0625,-63.74243 -63.0625,-110.92383 0,-71.43634 57.90936,-129.3457 129.3457,-129.3457 8.81995,0 17.42908,0.89523 25.74805,2.57617 C 931.22399,52.537154 985.75148,2.7089844 1052,2.7089844 c 66.2485,0 120.7767,49.8281696 128.3574,114.0332056 8.319,-1.68094 16.9281,-2.57617 25.7481,-2.57617 71.4363,0 129.3398,57.90936 129.3398,129.3457 0,51.83864 -30.5594,96.42597 -74.5801,117.05859 9.7099,18.16067 15.252,38.88518 15.252,60.92188 0,71.43634 -57.9028,129.3457 -129.3457,129.3457 -37.4881,0 -71.152,-16.0509 -94.7774,-41.53516 -23.6187,25.48426 -57.28457,41.53516 -94.77926,41.53516 -71.43634,0 -129.3457,-57.90277 -129.3457,-129.3457 0,-15.65832 2.81186,-30.65122 7.91797,-44.53516 l 16.41798,-5.53905 c -4.13873,12.07418 -6.40625,25.01813 -6.40625,38.49805 0,65.7275 53.27661,118.99805 118.99805,118.99805 34.49511,0 65.46801,-14.76737 87.19721,-38.21289 21.7354,23.44552 52.7063,38.21289 87.1954,38.21289 65.7275,0 118.998,-53.27661 118.998,-118.99805 0,-20.27377 -5.1001,-39.34102 -14.0332,-56.04883 40.499,-18.98202 68.6152,-60.00376 68.6152,-107.69531 0,-65.72144 -53.2707,-118.99806 -118.9922,-118.99806 -8.1143,0 -16.036,0.82463 -23.6894,2.37109 C 1163.1137,70.476293 1112.9486,24.634767 1052,24.634767 c -60.94863,0 -111.11541,45.841526 -118.09569,104.910153 -7.65345,-1.54646 -15.57315,-2.37109 -23.6875,-2.37109 -65.72145,0 -118.99806,53.27662 -118.99806,118.99806 0,43.52581 23.42447,81.48608 58.30665,102.21679 z"
           transform="matrix(0.1517015,0,0,0.1517015,-114.58903,4.1599226)"
           id="path4543"
           inkscape:connector-curvature="0"
           sodipodi:nodetypes="csscscsscsscssccsscsscsscscsscc" />
      </g>
      <g
         id="g4547"
         style="fill:none;stroke:#ff0000;stroke-width:0.00087943;stroke-miterlimit:4;stroke-dasharray:none"
         transform="matrix(6.0645412,0,0,6.0645412,779.0894,-3.0860782)" />
    </g>
    <g
       style="stroke:#ff0000;stroke-width:0.00533333;stroke-miterlimit:4;stroke-dasharray:none"
       transform="matrix(0.26458333,0,0,0.26458333,831.26435,206.32282)"
       id="g52">
      <g
         style="stroke:#ff0000;stroke-width:0.00533333;stroke-miterlimit:4;stroke-dasharray:none"
         id="g37">
        <g
           transform="matrix(6.5918926,0,0,6.5918926,-904.61926,-646.02858)"
           style="fill:none;stroke:#ff0000;stroke-width:0.00080907;stroke-miterlimit:4;stroke-dasharray:none"
           id="g36">
          <path
             sodipodi:nodetypes="sscscsscsscsscs"
             inkscape:connector-curvature="0"
             style="fill:none;stroke:#ff0000;stroke-width:0.00080907;stroke-miterlimit:4;stroke-dasharray:none"
             id="path34"
             d="M 88,41.101 C 88,30.264 79.216,21.479 68.379,21.479 c -1.338,0 -2.644,0.136 -3.906,0.391 C 63.323,12.13 55.051,4.571 45.001,4.571 34.951,4.571 26.679,12.13 25.528,21.87 24.266,21.615 22.96,21.479 21.622,21.479 10.785,21.479 2,30.264 2,41.101 2,48.965 6.636,55.729 13.315,58.859 11.841,61.613 11,64.758 11,68.101 c 0,10.838 8.785,19.622 19.622,19.622 5.688,0 10.795,-2.435 14.378,-6.301 3.584,3.866 8.691,6.301 14.378,6.301 C 70.216,87.723 79,78.938 79,68.101 79,64.758 78.159,61.614 76.686,58.859 83.364,55.729 88,48.965 88,41.101 Z" />
        </g>
        <g
           id="g40"
           style="fill:none;stroke:#ff0000;stroke-width:0.00087943;stroke-miterlimit:4;stroke-dasharray:none"
           transform="matrix(6.0645412,0,0,6.0645412,-880.88845,-621.69289)">
          <path
             d="M 88,41.101 C 88,30.264 79.216,21.479 68.379,21.479 c -1.338,0 -2.644,0.136 -3.906,0.391 C 63.323,12.13 55.051,4.571 45.001,4.571 34.951,4.571 26.679,12.13 25.528,21.87 24.266,21.615 22.96,21.479 21.622,21.479 10.785,21.479 2,30.264 2,41.101 2,48.965 6.636,55.729 13.315,58.859 11.841,61.613 11,64.758 11,68.101 c 0,10.838 8.785,19.622 19.622,19.622 5.688,0 10.795,-2.435 14.378,-6.301 3.584,3.866 8.691,6.301 14.378,6.301 C 70.216,87.723 79,78.938 79,68.101 79,64.758 78.159,61.614 76.686,58.859 83.364,55.729 88,48.965 88,41.101 Z"
             id="path38"
             style="fill:none;stroke:#ff0000;stroke-width:0.00087943;stroke-miterlimit:4;stroke-dasharray:none"
             inkscape:connector-curvature="0"
             sodipodi:nodetypes="sscscsscsscsscs" />
        </g>
      </g>
    </g>
    <g
       transform="matrix(1.6045765,0,0,1.6045765,96.669277,187.57982)"
       style="fill:#1a1a1a;stroke:#ff0000;stroke-width:0.00087943;stroke-miterlimit:4;stroke-dasharray:none"
       id="g158">
      <path
         sodipodi:nodetypes="sscscsscsscsscs"
         inkscape:connector-curvature="0"
         style="fill:none;stroke:#ff0000;stroke-width:0.00087943;stroke-miterlimit:4;stroke-dasharray:none"
         id="path156"
         d="M 88,41.101 C 88,30.264 79.216,21.479 68.379,21.479 c -1.338,0 -2.644,0.136 -3.906,0.391 C 63.323,12.13 55.051,4.571 45.001,4.571 34.951,4.571 26.679,12.13 25.528,21.87 24.266,21.615 22.96,21.479 21.622,21.479 10.785,21.479 2,30.264 2,41.101 2,48.965 6.636,55.729 13.315,58.859 11.841,61.613 11,64.758 11,68.101 c 0,10.838 8.785,19.622 19.622,19.622 5.688,0 10.795,-2.435 14.378,-6.301 3.584,3.866 8.691,6.301 14.378,6.301 C 70.216,87.723 79,78.938 79,68.101 79,64.758 78.159,61.614 76.686,58.859 83.364,55.729 88,48.965 88,41.101 Z" />
    </g>
  </g>
</svg>
